<svg width="28" height="28" viewBox="0 0 28 28" fill="none" xmlns="http://www.w3.org/2000/svg">
<g clip-path="url(#clip0_200_1155)">
<path fill-rule="evenodd" clip-rule="evenodd" d="M14.0002 27.125C6.76326 27.125 0.875 21.2369 0.875 14C0.875164 6.76309 6.76304 0.875 14 0.875C21.2375 0.875 27.125 6.76309 27.125 14C27.125 21.2369 21.2375 27.125 14.0002 27.125ZM19.42 14C19.4199 13.4821 19.0005 13.0625 18.4827 13.0625H14.9376C14.4918 13.0625 14.5181 13.0625 14 13.0625C13.482 13.0625 13.3913 13.0625 13.0626 13.0625H9.51759C8.99959 13.0625 8.58019 13.4821 8.58003 14.0001C8.58003 14.518 8.9997 14.9376 9.51781 14.9376H13.0627C13.4341 14.9376 13.4822 14.9376 14 14.9376C14.5179 14.9376 14.9376 14.9376 14.9376 14.9376H18.4824C19.0004 14.9375 19.42 14.518 19.42 14Z" fill="#134CB2"/>
</g>
<defs>
<clipPath id="clip0_200_1155">
<rect width="28" height="28" fill="white"/>
</clipPath>
</defs>
</svg>
