<svg width="28" height="28" viewBox="0 0 28 28" fill="none" xmlns="http://www.w3.org/2000/svg">
<g clip-path="url(#clip0_200_1157)">
<path fill-rule="evenodd" clip-rule="evenodd" d="M14.0002 27.125C6.76326 27.125 0.875 21.2369 0.875 14C0.875164 6.76309 6.76304 0.875 14 0.875C21.2375 0.875 27.125 6.76309 27.125 14C27.125 21.2369 21.2375 27.125 14.0002 27.125ZM19.42 14C19.4199 13.4821 19.0005 13.0625 18.4827 13.0625H14.9376L14.9375 9.51759C14.9375 8.99965 14.5181 8.58009 14 8.58009C13.482 8.58009 13.0626 8.99959 13.0626 9.51759V13.0625H9.51759C8.99959 13.0625 8.5802 13.4821 8.58003 14.0001C8.58003 14.518 8.9997 14.9376 9.51781 14.9376H13.0627L13.0625 18.4825C13.0625 19.0005 13.4822 19.42 14 19.42C14.5179 19.42 14.9376 19.0005 14.9376 18.4825V14.9376H18.4824C19.0004 14.9375 19.42 14.518 19.42 14Z" fill="#134CB2"/>
</g>
<defs>
<clipPath id="clip0_200_1157">
<rect width="28" height="28" fill="white"/>
</clipPath>
</defs>
</svg>
