<svg width="19" height="17" viewBox="0 0 19 17" fill="none" xmlns="http://www.w3.org/2000/svg">
<path d="M1.01909 0C0.817837 0 0.624823 0.0746279 0.482513 0.207466C0.340203 0.340304 0.260254 0.520472 0.260254 0.708333C0.260254 0.896195 0.340203 1.07636 0.482513 1.2092C0.624823 1.34204 0.817837 1.41667 1.01909 1.41667H1.39244C1.55722 1.41693 1.71743 1.46726 1.84885 1.56003C1.98028 1.65281 2.07578 1.78299 2.12093 1.93092L4.52797 9.79342C4.66411 10.2371 4.95131 10.6274 5.34616 10.9052C5.741 11.183 6.22201 11.3333 6.71647 11.3333H13.6508C14.1058 11.3334 14.5505 11.2062 14.9273 10.968C15.3042 10.7299 15.5959 10.3918 15.7649 9.99742L18.0019 4.77558C18.0939 4.56071 18.1281 4.32808 18.1015 4.09803C18.0749 3.86798 17.9884 3.64752 17.8494 3.4559C17.7105 3.26428 17.5233 3.10735 17.3044 2.99883C17.0855 2.8903 16.8414 2.83348 16.5935 2.83333H3.97554L3.57942 1.54133C3.44363 1.09759 3.15677 0.70718 2.76221 0.429103C2.36765 0.151026 1.88684 0.000402855 1.39244 0H1.01909ZM7.08982 17C7.38877 17 7.6848 16.945 7.961 16.8382C8.2372 16.7315 8.48817 16.5749 8.69956 16.3776C8.91096 16.1803 9.07864 15.946 9.19305 15.6882C9.30746 15.4304 9.36634 15.1541 9.36634 14.875C9.36634 14.5959 9.30746 14.3196 9.19305 14.0618C9.07864 13.804 8.91096 13.5697 8.69956 13.3724C8.48817 13.1751 8.2372 13.0185 7.961 12.9118C7.6848 12.805 7.38877 12.75 7.08982 12.75C6.48605 12.75 5.907 12.9739 5.48007 13.3724C5.05314 13.7709 4.8133 14.3114 4.8133 14.875C4.8133 15.4386 5.05314 15.9791 5.48007 16.3776C5.907 16.7761 6.48605 17 7.08982 17ZM13.1605 17C13.4595 17 13.7555 16.945 14.0317 16.8382C14.3079 16.7315 14.5589 16.5749 14.7703 16.3776C14.9817 16.1803 15.1494 15.946 15.2638 15.6882C15.3782 15.4304 15.4371 15.1541 15.4371 14.875C15.4371 14.5959 15.3782 14.3196 15.2638 14.0618C15.1494 13.804 14.9817 13.5697 14.7703 13.3724C14.5589 13.1751 14.3079 13.0185 14.0317 12.9118C13.7555 12.805 13.4595 12.75 13.1605 12.75C12.5568 12.75 11.9777 12.9739 11.5508 13.3724C11.1239 13.7709 10.884 14.3114 10.884 14.875C10.884 15.4386 11.1239 15.9791 11.5508 16.3776C11.9777 16.7761 12.5568 17 13.1605 17Z" fill="#134CB2"/>
</svg>
