<svg width="297" height="75" viewBox="0 0 297 75" fill="none" xmlns="http://www.w3.org/2000/svg">
<path d="M20.0678 72.8931H0L26.013 0.106689H46.0808L20.0678 72.8931Z" fill="#134CB2"/>
<path d="M20.0678 72.8931H0L26.013 0.106689H46.0808L20.0678 72.8931Z" fill="#134CB2"/>
<path opacity="0.32" d="M36.5247 0.106689L10.5117 72.8931H20.0676L46.0806 0.106689H36.5247Z" fill="#134CB2"/>
<path d="M65.3009 72.8931H45.233L71.246 0.106689H91.3139L65.3009 72.8931Z" fill="#134CB2"/>
<path opacity="0.42" d="M79.8978 0.106689L53.8848 72.8931H65.3L91.313 0.106689H79.8978Z" fill="#134CB2"/>
<path d="M65.3009 72.8931H45.233L71.246 0.106689H91.3139L65.3009 72.8931Z" fill="#134CB2"/>
<path d="M20.0678 72.8931H0L26.013 0.106689H46.0808L20.0678 72.8931Z" fill="#134CB2"/>
<path d="M0 72.8925H20.0678C31.2689 42.7486 77.7205 31.4824 97.2586 31.4824C80.8015 27.6599 19.6612 19.981 0 72.8925Z" fill="#082860"/>
<path d="M97.2584 31.4834C86.3758 29.3631 28.7203 27.9794 10.5117 72.8935H20.0676C31.2688 42.7491 77.7203 31.4834 97.2584 31.4834Z" fill="#134CB2"/>
<path opacity="0.47" d="M0 72.8925H20.0678C31.2689 42.7486 77.7205 31.4824 97.2586 31.4824C80.8015 27.6599 19.6612 19.981 0 72.8925Z" fill="#134CB2"/>
<path d="M125.656 74.0653C120.33 74.0653 115.713 72.8935 111.807 70.5497C107.901 68.206 104.87 64.9271 102.716 60.7131C100.585 56.4991 99.5199 51.5748 99.5199 45.9403C99.5199 40.3059 100.585 35.3698 102.716 31.1321C104.87 26.8944 107.901 23.6037 111.807 21.2599C115.713 18.9162 120.33 17.7443 125.656 17.7443C130.983 17.7443 135.599 18.9162 139.506 21.2599C143.412 23.6037 146.43 26.8944 148.561 31.1321C150.715 35.3698 151.793 40.3059 151.793 45.9403C151.793 51.5748 150.715 56.4991 148.561 60.7131C146.43 64.9271 143.412 68.206 139.506 70.5497C135.599 72.8935 130.983 74.0653 125.656 74.0653ZM125.727 63.767C128.616 63.767 131.03 62.974 132.972 61.3878C134.913 59.7779 136.357 57.6236 137.304 54.9247C138.275 52.2259 138.76 49.2192 138.76 45.9048C138.76 42.5668 138.275 39.5483 137.304 36.8494C136.357 34.1269 134.913 31.9607 132.972 30.3509C131.03 28.741 128.616 27.9361 125.727 27.9361C122.768 27.9361 120.306 28.741 118.341 30.3509C116.4 31.9607 114.944 34.1269 113.973 36.8494C113.026 39.5483 112.553 42.5668 112.553 45.9048C112.553 49.2192 113.026 52.2259 113.973 54.9247C114.944 57.6236 116.4 59.7779 118.341 61.3878C120.306 62.974 122.768 63.767 125.727 63.767ZM175.559 0.272725V73H162.704V0.272725H175.559ZM204.474 74.1009C201.017 74.1009 197.904 73.4853 195.134 72.2543C192.388 70.9995 190.21 69.1529 188.6 66.7145C187.014 64.276 186.221 61.2694 186.221 57.6946C186.221 54.617 186.789 52.072 187.925 50.0597C189.062 48.0473 190.612 46.4375 192.577 45.2301C194.542 44.0227 196.756 43.1113 199.218 42.4957C201.704 41.8565 204.273 41.3949 206.924 41.1108C210.12 40.7794 212.712 40.4834 214.701 40.223C216.69 39.9389 218.134 39.5128 219.033 38.9446C219.957 38.3527 220.418 37.4413 220.418 36.2102V35.9972C220.418 33.322 219.625 31.2505 218.039 29.7827C216.453 28.3149 214.168 27.581 211.185 27.581C208.037 27.581 205.539 28.2675 203.692 29.6406C201.87 31.0137 200.639 32.6354 199.999 34.5057L187.996 32.8011C188.943 29.4867 190.506 26.7169 192.684 24.4915C194.862 22.2424 197.525 20.5616 200.674 19.4489C203.823 18.3125 207.303 17.7443 211.114 17.7443C213.742 17.7443 216.358 18.0521 218.962 18.6676C221.567 19.2831 223.946 20.3011 226.1 21.7216C228.255 23.1184 229.983 25.0241 231.285 27.4389C232.611 29.8537 233.273 32.8722 233.273 36.4943V73H220.916V65.5071H220.489C219.708 67.0223 218.607 68.4427 217.187 69.7685C215.79 71.0705 214.026 72.1241 211.896 72.929C209.789 73.7102 207.315 74.1009 204.474 74.1009ZM207.812 64.6548C210.392 64.6548 212.63 64.1458 214.523 63.1278C216.417 62.0862 217.873 60.7131 218.891 59.0085C219.933 57.304 220.454 55.4455 220.454 53.4332V47.0057C220.051 47.3371 219.365 47.6449 218.394 47.929C217.447 48.2131 216.382 48.4616 215.198 48.6747C214.014 48.8878 212.843 49.0772 211.683 49.2429C210.523 49.4086 209.516 49.5507 208.664 49.669C206.746 49.9294 205.03 50.3556 203.515 50.9474C202 51.5393 200.804 52.3679 199.928 53.4332C199.052 54.4749 198.614 55.8243 198.614 57.4815C198.614 59.849 199.478 61.6364 201.207 62.8438C202.935 64.0511 205.137 64.6548 207.812 64.6548ZM256.711 18.4545L267.719 38.5895L278.906 18.4545H292.506L276.065 45.7273L292.791 73H279.261L267.719 53.3622L256.285 73H242.648L259.268 45.7273L243.075 18.4545H256.711Z" fill="white"/>
</svg>
