<svg width="140" height="35" viewBox="0 0 140 35" fill="none" xmlns="http://www.w3.org/2000/svg">
<path d="M10.4161 34.4278H0.924072L13.2282 0H22.7202L10.4161 34.4278Z" fill="#134CB2"/>
<path d="M10.4161 34.4278H0.924072L13.2282 0H22.7202L10.4161 34.4278Z" fill="#134CB2"/>
<path opacity="0.32" d="M18.2002 0L5.89612 34.4278H10.4161L22.7201 0H18.2002Z" fill="#134CB2"/>
<path d="M31.8113 34.4278H22.3192L34.6233 0H44.1154L31.8113 34.4278Z" fill="#134CB2"/>
<path opacity="0.42" d="M38.7158 0L26.4117 34.4278H31.8111L44.1152 0H38.7158Z" fill="#134CB2"/>
<path d="M31.8113 34.4278H22.3192L34.6233 0H44.1154L31.8113 34.4278Z" fill="#134CB2"/>
<path d="M10.4161 34.4278H0.924072L13.2282 0H22.7202L10.4161 34.4278Z" fill="#134CB2"/>
<path d="M0.924072 34.4264H10.4161C15.7142 20.1684 37.6857 14.8395 46.9272 14.8395C39.1431 13.0315 10.2238 9.39937 0.924072 34.4264Z" fill="#082860"/>
<path d="M46.9271 14.8411C41.7797 13.8382 14.5087 13.1838 5.89612 34.4281H10.4161C15.7142 20.1698 37.6856 14.8411 46.9271 14.8411Z" fill="#134CB2"/>
<path opacity="0.47" d="M0.924072 34.4264H10.4161C15.7142 20.1684 37.6857 14.8395 46.9272 14.8395C39.1431 13.0315 10.2238 9.39937 0.924072 34.4264Z" fill="#134CB2"/>
<path d="M60.3581 34.9833C57.8385 34.9833 55.655 34.4291 53.8073 33.3205C51.9597 32.2119 50.5263 30.661 49.5073 28.6678C48.4995 26.6745 47.9956 24.3454 47.9956 21.6803C47.9956 19.0152 48.4995 16.6804 49.5073 14.676C50.5263 12.6716 51.9597 11.1151 53.8073 10.0065C55.655 8.89791 57.8385 8.34362 60.3581 8.34362C62.8776 8.34362 65.0612 8.89791 66.9088 10.0065C68.7565 11.1151 70.1842 12.6716 71.192 14.676C72.211 16.6804 72.7205 19.0152 72.7205 21.6803C72.7205 24.3454 72.211 26.6745 71.192 28.6678C70.1842 30.661 68.7565 32.2119 66.9088 33.3205C65.0612 34.4291 62.8776 34.9833 60.3581 34.9833ZM60.3917 30.1123C61.7578 30.1123 62.9 29.7371 63.8182 28.9869C64.7364 28.2254 65.4195 27.2064 65.8674 25.9299C66.3265 24.6533 66.5561 23.2312 66.5561 21.6635C66.5561 20.0846 66.3265 18.6569 65.8674 17.3803C65.4195 16.0925 64.7364 15.0679 63.8182 14.3065C62.9 13.545 61.7578 13.1643 60.3917 13.1643C58.9919 13.1643 57.8273 13.545 56.8979 14.3065C55.9797 15.0679 55.291 16.0925 54.8319 17.3803C54.384 18.6569 54.16 20.0846 54.16 21.6635C54.16 23.2312 54.384 24.6533 54.8319 25.9299C55.291 27.2064 55.9797 28.2254 56.8979 28.9869C57.8273 29.7371 58.9919 30.1123 60.3917 30.1123Z" fill="#0E0E0E"/>
<path d="M83.9618 0.0795898V34.4794H77.8813V0.0795898H83.9618Z" fill="#0E0E0E"/>
<path d="M97.6386 35.0001C96.0037 35.0001 94.5312 34.709 93.221 34.1267C91.9221 33.5332 90.8919 32.6598 90.1304 31.5064C89.3802 30.353 89.005 28.9309 89.005 27.24C89.005 25.7843 89.2738 24.5805 89.8113 23.6287C90.3488 22.6769 91.0822 21.9154 92.0117 21.3443C92.9411 20.7733 93.9881 20.3421 95.1527 20.051C96.3284 19.7486 97.5434 19.5303 98.7976 19.3959C100.309 19.2391 101.535 19.0992 102.476 18.976C103.417 18.8416 104.1 18.6401 104.525 18.3713C104.962 18.0914 105.18 17.6602 105.18 17.078V16.9772C105.18 15.7118 104.805 14.732 104.055 14.0377C103.305 13.3435 102.224 12.9963 100.813 12.9963C99.3239 12.9963 98.1425 13.3211 97.2691 13.9705C96.4068 14.62 95.8245 15.3871 95.5222 16.2717L89.8449 15.4655C90.2928 13.8978 91.0318 12.5876 92.062 11.535C93.0922 10.4712 94.352 9.67616 95.8413 9.14986C97.3306 8.61237 98.9767 8.34362 100.78 8.34362C102.023 8.34362 103.26 8.48919 104.492 8.78033C105.723 9.07148 106.849 9.55299 107.868 10.2249C108.887 10.8855 109.704 11.787 110.32 12.9291C110.947 14.0713 111.261 15.4991 111.261 17.2123V34.4794H105.416V30.9353H105.214C104.844 31.652 104.324 32.3239 103.652 32.9509C102.991 33.5668 102.157 34.0651 101.149 34.4459C100.153 34.8154 98.9823 35.0001 97.6386 35.0001ZM99.2175 30.5322C100.438 30.5322 101.496 30.2914 102.392 29.8099C103.288 29.3172 103.977 28.6678 104.458 27.8615C104.951 27.0553 105.197 26.1762 105.197 25.2244V22.1842C105.007 22.341 104.682 22.4865 104.223 22.6209C103.775 22.7553 103.271 22.8729 102.711 22.9736C102.151 23.0744 101.597 23.164 101.048 23.2424C100.5 23.3208 100.024 23.388 99.6206 23.4439C98.7136 23.5671 97.9017 23.7687 97.1851 24.0486C96.4684 24.3286 95.9029 24.7205 95.4886 25.2244C95.0743 25.7171 94.8671 26.3554 94.8671 27.1392C94.8671 28.259 95.2758 29.1045 96.0933 29.6756C96.9107 30.2467 97.9521 30.5322 99.2175 30.5322Z" fill="#0E0E0E"/>
<path d="M122.347 8.67955L127.554 18.2033L132.845 8.67955H139.278L131.501 21.5795L139.412 34.4794H133.013L127.554 25.1908L122.145 34.4794H115.695L123.556 21.5795L115.897 8.67955H122.347Z" fill="#0E0E0E"/>
</svg>
