<svg width="42" height="42" viewBox="0 0 42 42" fill="none" xmlns="http://www.w3.org/2000/svg">
<path d="M32.8126 32.1125C32.8953 32.8616 32.8076 33.6197 32.5561 34.3302C32.3045 35.0406 31.8956 35.685 31.3599 36.2152C30.8242 36.7453 30.1756 37.1475 29.4626 37.3916C28.7495 37.6358 27.9905 37.7155 27.2423 37.625H14.7578C14.0096 37.7155 13.2506 37.6358 12.5375 37.3916C11.8245 37.1475 11.1759 36.7453 10.6402 36.2152C10.1045 35.685 9.69558 35.0406 9.44403 34.3302C9.19248 33.6197 9.10481 32.8616 9.18756 32.1125C9.11032 30.9518 9.28219 29.788 9.69162 28.6992C10.101 27.6104 10.7386 26.6217 11.5615 25.7995C12.3843 24.9773 13.3735 24.3406 14.4626 23.932C15.5518 23.5235 16.7157 23.3526 17.8763 23.4307H24.1238C25.2844 23.3526 26.4483 23.5235 27.5375 23.932C28.6266 24.3406 29.6158 24.9773 30.4387 25.7995C31.2615 26.6217 31.8991 27.6104 32.3085 28.6992C32.7179 29.788 32.8898 30.9518 32.8126 32.1125ZM21.0141 20.146C22.2265 20.1411 23.4103 19.7772 24.4161 19.1001C25.4218 18.423 26.2044 17.463 26.665 16.3415C27.1257 15.22 27.2437 13.9871 27.0042 12.7986C26.7647 11.61 26.1784 10.5191 25.3194 9.66344C24.4603 8.80783 23.3671 8.22591 22.1776 7.99115C20.9881 7.75639 19.7557 7.87931 18.636 8.3444C17.5163 8.8095 16.5595 9.5959 15.8864 10.6043C15.2133 11.6128 14.8541 12.798 14.8541 14.0105C14.8596 15.6403 15.5112 17.2013 16.6659 18.3515C17.8206 19.5016 19.3843 20.1469 21.0141 20.146ZM32.8826 15.6275H30.0651C29.9476 15.6282 29.8338 15.6682 29.7418 15.7411C29.6498 15.8141 29.585 15.9158 29.5576 16.03C29.1755 17.6711 28.317 19.1627 27.0901 20.3175C27.0258 20.3857 26.9809 20.47 26.9602 20.5614C26.9394 20.6529 26.9436 20.7482 26.9721 20.8375C27.0007 20.9268 27.0527 21.0069 27.1227 21.0693C27.1927 21.1317 27.2781 21.1742 27.3701 21.1925C28.7427 21.4895 30.0356 22.0775 31.1616 22.9168C32.2877 23.756 33.2206 24.827 33.8976 26.0575C33.939 26.1525 34.0077 26.2331 34.0949 26.2892C34.1821 26.3452 34.2839 26.3742 34.3876 26.3725H35.1226C35.6959 26.4407 36.2773 26.3782 36.823 26.1898C37.3688 26.0014 37.8649 25.6918 38.274 25.2844C38.6831 24.8769 38.9947 24.3822 39.1854 23.8372C39.3761 23.2922 39.4409 22.7111 39.3751 22.1375C39.4334 21.269 39.3057 20.3981 39.0003 19.5829C38.6949 18.7678 38.2189 18.0273 37.6043 17.411C36.9896 16.7947 36.2504 16.3167 35.4361 16.0092C34.6218 15.7016 33.7512 15.5715 32.8826 15.6275ZM30.6426 4.37498C29.8146 4.37427 29.0014 4.59364 28.2862 5.01061C27.5709 5.42758 26.9793 6.02718 26.5721 6.74798C26.5155 6.85567 26.5024 6.98091 26.5353 7.09799C26.5606 7.20722 26.6262 7.30285 26.7191 7.36574C27.5925 8.09784 28.3114 8.99652 28.8339 10.0094C29.3564 11.0222 29.672 12.1289 29.7623 13.265C29.7686 13.3783 29.8173 13.4852 29.8988 13.5642C29.9963 13.6585 30.1255 13.7128 30.2611 13.7165C30.3853 13.727 30.5131 13.734 30.6426 13.734C31.8841 13.734 33.0748 13.2408 33.9527 12.3629C34.8306 11.485 35.3238 10.2943 35.3238 9.05273C35.3238 7.81119 34.8306 6.6205 33.9527 5.74259C33.0748 4.86469 31.8841 4.37148 30.6426 4.37148V4.37498ZM2.62506 22.1375C2.55921 22.7111 2.62406 23.2922 2.81475 23.8372C3.00544 24.3822 3.31702 24.8769 3.72614 25.2844C4.13526 25.6918 4.6313 26.0014 5.17708 26.1898C5.72286 26.3782 6.30421 26.4407 6.87756 26.3725H7.61256C7.71621 26.3742 7.81805 26.3452 7.90525 26.2892C7.99246 26.2331 8.06111 26.1525 8.10256 26.0575C8.77948 24.827 9.71243 23.756 10.8385 22.9168C11.9645 22.0775 13.2574 21.4895 14.6301 21.1925C14.722 21.1742 14.8075 21.1317 14.8774 21.0693C14.9474 21.0069 14.9994 20.9268 15.028 20.8375C15.0566 20.7482 15.0607 20.6529 15.04 20.5614C15.0192 20.47 14.9744 20.3857 14.9101 20.3175C13.6831 19.1627 12.8246 17.6711 12.4426 16.03C12.4152 15.9158 12.3503 15.8141 12.2583 15.7411C12.1663 15.6682 12.0525 15.6282 11.9351 15.6275H9.11756C8.24892 15.5715 7.37833 15.7016 6.56404 16.0092C5.74975 16.3167 5.01054 16.7947 4.39587 17.411C3.7812 18.0273 3.30525 18.7678 2.99986 19.5829C2.69447 20.3981 2.56669 21.269 2.62506 22.1375ZM6.68506 9.04749C6.68413 10.2886 7.17555 11.4794 8.05151 12.3587C8.92748 13.2379 10.1164 13.7338 11.3576 13.7375C11.4871 13.7375 11.6148 13.7375 11.7391 13.72C11.8746 13.7163 12.0038 13.662 12.1013 13.5677C12.1828 13.4887 12.2316 13.3818 12.2378 13.2685C12.3281 12.1324 12.6438 11.0257 13.1662 10.0129C13.6887 9.00002 14.4076 8.10134 15.2811 7.36923C15.3739 7.30635 15.4395 7.21072 15.4648 7.10149C15.4977 6.98441 15.4846 6.85917 15.4281 6.75148C14.9215 5.84926 14.1299 5.14061 13.1773 4.73662C12.2247 4.33264 11.165 4.25614 10.1642 4.51914C9.16351 4.78213 8.27833 5.36974 7.64743 6.18987C7.01654 7.00999 6.6756 8.01627 6.67806 9.05098L6.68506 9.04749Z" fill="#134CB2"/>
</svg>
