<svg width="42" height="42" viewBox="0 0 42 42" fill="none" xmlns="http://www.w3.org/2000/svg">
<path fill-rule="evenodd" clip-rule="evenodd" d="M18.3286 31.6152C18.6933 31.9603 19.0759 32.2872 19.4743 32.5941C17.709 33.4915 15.7113 33.998 13.5968 33.998C10.8048 33.998 8.21705 33.1155 6.09792 31.6152H18.3286ZM22.5008 9.40593C24.266 8.50854 26.2637 8.00204 28.3783 8.00204C35.552 8.00204 41.3763 13.8263 41.3763 21C41.3763 28.1737 35.552 33.998 28.3783 33.998C26.2637 33.998 24.266 33.4915 22.5008 32.5941C25.976 29.9202 28.2174 25.7198 28.2174 21C28.2174 16.2802 25.976 12.0798 22.5008 9.40593ZM20.9875 10.3095C24.3746 12.6566 26.5943 16.5709 26.5943 21C26.5943 25.4291 24.3746 29.3435 20.9875 31.6905C17.6009 29.3435 15.3807 25.4291 15.3807 21C15.3807 16.5709 17.6009 12.6566 20.9875 10.3095ZM14.9175 26.712C15.4198 27.893 16.0731 28.9946 16.8528 29.9922H4.21499C3.29099 29.0287 2.51378 27.9229 1.91996 26.712H14.9175ZM13.7802 21.8092C13.8417 22.9416 14.033 24.0398 14.3386 25.0894H1.25627C0.911126 24.0477 0.694057 22.9482 0.623779 21.8092H13.7802ZM14.3399 16.9065C14.0338 17.956 13.8426 19.0543 13.7802 20.1866H0.624195C0.694472 19.0476 0.911958 17.9481 1.25794 16.9065H14.3399ZM16.8532 12.0074C16.0744 13.0042 15.4215 14.1041 14.9196 15.2838H1.92204C2.51586 14.0742 3.29223 12.9701 4.2154 12.0074H16.8532ZM6.09833 10.3844C8.21705 8.88446 10.8048 8.00204 13.5968 8.00204C15.7113 8.00204 17.709 8.50854 19.4743 9.40593C19.0759 9.71282 18.6933 10.0397 18.3291 10.3844H6.09833Z" fill="#134CB2"/>
</svg>
