<svg width="42" height="42" viewBox="0 0 42 42" fill="none" xmlns="http://www.w3.org/2000/svg">
<path d="M17.4664 32.3618C16.9355 31.8718 16.1596 31.7492 15.4654 32.0351C15.4246 32.0351 15.4246 32.0351 15.3837 32.0351C15.3837 32.0351 15.3837 32.0351 15.3837 31.9943C15.4245 31.0142 14.6487 30.1566 13.6686 30.0749C13.4236 30.0749 13.1785 30.1158 12.9335 30.1975C12.6477 30.2383 12.7293 29.9933 12.7293 29.9933C13.0969 29.054 12.6885 28.0331 11.7493 27.6247C11.2592 27.4206 10.6875 27.4614 10.1975 27.7064C9.99328 27.7473 10.0341 27.5431 10.0341 27.5431C10.5242 26.6855 10.2383 25.6238 9.42156 25.1337C8.60483 24.6845 7.62475 24.8887 7.05304 25.6237L5.62375 27.3797C5.0112 28.1556 5.13371 29.299 5.86877 29.9116C5.86877 29.9116 5.86877 29.9116 5.90961 29.9524L6.11379 30.1158C6.68551 30.565 7.50224 30.6058 8.11479 30.2383C8.15563 30.1975 8.19646 30.2383 8.2373 30.2791V30.3608C8.11479 31.0142 8.35981 31.7084 8.89069 32.1168L9.05403 32.2393C9.62575 32.6885 10.3608 32.7293 11.0142 32.4435C11.055 32.4026 11.0959 32.4435 11.1367 32.4843V32.5251C11.055 33.1377 11.3 33.7502 11.7901 34.1586L11.9126 34.2403C12.4843 34.6895 13.2194 34.7303 13.8728 34.4445C13.9136 34.4036 13.9953 34.4445 13.9953 34.4853V34.5261C14.0769 34.9753 14.322 35.3837 14.6895 35.6696L14.7712 35.7512C15.5879 36.3638 16.7313 36.2413 17.3439 35.4245C17.3847 35.3429 17.4255 35.302 17.5072 35.2204L17.7522 34.7712C18.2423 33.9544 18.1198 32.9743 17.4664 32.3618ZM33.9236 27.9106C33.8419 27.7881 33.7602 27.6656 33.6785 27.5839L32.3718 25.9913L21.8359 13.1686C21.7134 13.0461 21.5501 13.0052 21.3867 13.0869L16.323 15.9046C14.6895 16.803 12.7702 16.9664 11.0142 16.313C10.075 15.9863 9.29905 15.2104 8.93152 14.2712C8.64567 13.2911 8.76818 12.2702 9.25822 11.3718C9.38073 11.1267 9.29905 10.8409 9.09487 10.7184C9.0132 10.6775 8.93152 10.6775 8.84985 10.6367H2.03013C1.49925 10.6367 1.05005 11.0859 1.05005 11.6168V25.2154C1.05005 25.7463 1.49925 26.1546 2.03013 26.1546H4.1128L5.58292 24.3578C6.88969 22.7652 9.25822 22.561 10.8508 23.8678C11.4226 24.3578 11.8718 25.0112 12.0759 25.7463C13.3419 26.073 14.322 27.053 14.6487 28.319C15.5471 28.6048 16.3638 29.1765 16.813 30.0341C17.5889 30.1566 18.324 30.5241 18.8957 31.0959C20.0799 32.321 20.325 34.2403 19.4265 35.7104L19.2224 36.0779C20.1616 36.7722 21.5092 36.5271 22.2034 35.5879C22.5301 35.0979 22.6526 34.5261 22.571 33.9544C22.571 33.9544 22.571 33.9136 22.571 33.8728H22.6118L22.7751 34.0361C23.5102 34.7712 24.6536 34.8937 25.552 34.322C26.2463 33.8319 26.573 32.9744 26.4096 32.1576V32.1168H26.4504L26.6138 32.2801C27.3489 33.0152 28.4923 33.1377 29.3907 32.566C30.0849 32.0759 30.4116 31.2184 30.2891 30.4016C30.2891 30.3608 30.2891 30.3608 30.2891 30.32H30.3299L30.4933 30.4833C31.1875 31.1775 32.2493 31.3001 33.1068 30.81C34.2094 30.2791 34.5361 28.9315 33.9236 27.9106ZM40.0082 10.6367H38.1706C37.3947 10.6367 36.6188 10.5142 35.9246 10.2283L24.817 5.98132C22.571 5.12375 20.0391 5.49128 18.1606 6.92056L11.1775 12.2293C11.055 12.3518 10.9325 12.5152 10.8508 12.6785C10.565 13.3319 10.8508 14.1078 11.5451 14.4345C12.811 14.9654 14.2403 14.9245 15.4246 14.2303L21.3459 10.8817C21.7951 10.6367 22.3668 10.7592 22.6935 11.1267L35.6387 26.8489C35.7612 26.9714 35.9654 27.0122 36.0879 26.8897L36.6188 26.4405C36.9046 26.2363 37.2313 26.1138 37.558 26.1138H39.9674C40.4983 26.1138 40.9066 25.7054 40.9475 25.1745V11.6168C40.9883 11.0859 40.5391 10.6367 40.0082 10.6367Z" fill="#134CB2"/>
</svg>
