<svg width="44" height="42" viewBox="0 0 44 42" fill="none" xmlns="http://www.w3.org/2000/svg">
<g clip-path="url(#clip0_14_1189)">
<path d="M5.67065 18.5391C5.67065 17.8591 5.11155 17.3086 4.42096 17.3086H1.92157C1.23098 17.3086 0.671875 17.8591 0.671875 18.5391C0.671875 19.2193 1.23098 19.7695 1.92157 19.7695H4.42096C5.11155 19.7695 5.67065 19.2193 5.67065 18.5391Z" fill="#134CB2"/>
<path d="M42.0784 17.3086H39.579C38.8885 17.3086 38.3293 17.8591 38.3293 18.5391C38.3293 19.2193 38.8885 19.7695 39.579 19.7695H42.0784C42.769 19.7695 43.3281 19.2193 43.3281 18.5391C43.3281 17.8591 42.769 17.3086 42.0784 17.3086Z" fill="#134CB2"/>
<path d="M7.47349 8.86002L5.30833 7.62955C4.71049 7.28925 3.94635 7.49112 3.60106 8.08008C3.25577 8.66904 3.4608 9.4211 4.05863 9.76108L6.22379 10.9915C6.81772 11.3293 7.58284 11.1325 7.93106 10.541C8.27635 9.95206 8.07132 9.2 7.47349 8.86002Z" fill="#134CB2"/>
<path d="M39.9413 27.3171L37.7761 26.0866C37.177 25.7476 36.4132 25.9482 36.0688 26.5371C35.7235 27.1261 35.9286 27.8781 36.5264 28.2181L38.6916 29.4486C39.2855 29.7863 40.0506 29.5896 40.3988 28.9981C40.7441 28.4091 40.5391 27.657 39.9413 27.3171Z" fill="#134CB2"/>
<path d="M12.1698 3.97725C12.5177 4.56877 13.2832 4.76551 13.8771 4.42778C14.4752 4.08747 14.6803 3.33541 14.3347 2.74678L13.085 0.614926C12.7397 0.0275691 11.972 -0.174625 11.3777 0.164395C10.7795 0.504376 10.5745 1.25676 10.9201 1.84539L12.1698 3.97725Z" fill="#134CB2"/>
<path d="M6.22379 26.0866L4.05863 27.3171C3.4608 27.657 3.25577 28.4091 3.60106 28.9981C3.94928 29.5899 4.7144 29.7866 5.30833 29.4486L7.47349 28.2181C8.07132 27.8781 8.27635 27.1261 7.93106 26.5371C7.58446 25.9482 6.81675 25.7476 6.22379 26.0866Z" fill="#134CB2"/>
<path d="M37.7761 10.9915L39.9413 9.76108C40.5391 9.4211 40.7441 8.66904 40.3988 8.08008C40.0522 7.49112 39.2845 7.28925 38.6916 7.62955L36.5264 8.86002C35.9286 9.2 35.7235 9.95206 36.0688 10.541C36.4171 11.1329 37.1822 11.3296 37.7761 10.9915Z" fill="#134CB2"/>
<path d="M30.1231 4.42776C30.717 4.76549 31.4824 4.56875 31.8303 3.97722L33.08 1.84537C33.4256 1.25674 33.2206 0.504355 32.6224 0.164374C32.0256 -0.174325 31.2605 0.0275488 30.9152 0.614905L29.6655 2.74676C29.3199 3.33539 29.5249 4.08777 30.1231 4.42776Z" fill="#134CB2"/>
<path d="M30.6661 8.03203C27.438 5.4474 23.2083 4.45373 19.055 5.30673C13.6598 6.41351 9.40304 10.7692 8.46317 16.1432C7.67593 20.6443 9.18337 25.1948 12.4941 28.3181C14.2554 29.9773 15.3261 32.1976 15.6216 34.5352H20.7502V28.7555L16.0297 21.7835L13.6182 19.4091C13.13 18.9284 13.13 18.1497 13.6182 17.6691C14.1063 17.1884 14.8971 17.1884 15.3853 17.6691L17.0011 19.2601L18.6169 17.6691C19.1051 17.1884 19.8959 17.1884 20.3841 17.6691L21.9999 19.2601L23.6157 17.6691C24.1039 17.1884 24.8947 17.1884 25.3829 17.6691L26.9987 19.2601L28.6145 17.6691C29.1027 17.1884 29.8935 17.1884 30.3816 17.6691C30.8698 18.1497 30.8698 18.9284 30.3816 19.4091L27.9701 21.7835L23.2496 28.7555V34.5352H28.3066C28.4524 32.3245 29.5182 30.1593 31.4214 28.396C34.1698 25.8475 35.7465 22.2545 35.7465 18.5391C35.7465 14.4462 33.8951 10.6167 30.6661 8.03203Z" fill="#134CB2"/>
<path d="M24.4993 20.279L22.8835 21.87C22.3953 22.3506 21.6045 22.3506 21.1163 21.87L19.5005 20.279L18.6091 21.1567L21.9999 26.1648L25.3907 21.1567L24.4993 20.279Z" fill="#134CB2"/>
<path d="M15.7515 38.3086C15.7515 40.344 17.4333 42 19.5005 42H24.4993C26.5665 42 28.2484 40.344 28.2484 38.3086V36.9961H15.7515V38.3086Z" fill="#134CB2"/>
</g>
<defs>
<clipPath id="clip0_14_1189">
<rect width="42.6562" height="42" fill="white" transform="translate(0.671875)"/>
</clipPath>
</defs>
</svg>
