<svg width="44" height="43" viewBox="0 0 44 43" fill="none" xmlns="http://www.w3.org/2000/svg">
<path fill-rule="evenodd" clip-rule="evenodd" d="M29.7532 16.2051C29.0379 15.6853 28.6905 14.8071 28.8567 13.9386L29.5393 10.3719L26.9156 7.91108H4.83399C2.78914 7.91108 1.11609 9.58413 1.11609 11.629V31.6903C1.11609 33.7352 2.78923 35.4082 4.83399 35.4082H8.62933V42.3927L14.3857 35.4082H30.068C32.1124 35.4082 33.7859 33.7349 33.7859 31.6903V15.4766L32.186 16.3574C31.4137 16.7826 30.4664 16.7234 29.7532 16.2051ZM11.3947 29.6315C11.3947 30.0716 11.0347 30.4317 10.5946 30.4317H8.24015C7.80007 30.4317 7.44011 30.0716 7.44011 29.6315V19.8995C7.44011 19.4594 7.80007 19.0994 8.24015 19.0994H10.5946C11.0347 19.0994 11.3947 19.4594 11.3947 19.8995V29.6315ZM25.5874 29.419C24.1699 30.8365 18.5956 30.7381 16.6215 30.3787C15.3016 30.1383 14.638 29.7243 13.108 29.6315L13.0916 19.7383C17.6528 19.0534 18.5642 16.5537 18.1722 11.901C18.1453 11.5819 18.3779 11.2985 18.6963 11.2627C22.5701 10.8274 21.7681 17.067 21.5288 18.925H23.2177C27.0611 18.828 27.2046 19.654 27.434 21.1935C27.6437 22.6008 26.643 28.3189 25.5875 29.419H25.5874ZM42.6949 6.66257L39.3716 9.77939L40.2282 14.2543C40.2725 14.4857 40.1846 14.7078 39.9941 14.8463C39.8035 14.9848 39.5651 14.9997 39.3586 14.8861L35.3674 12.6888L31.3761 14.8861C31.1696 14.9998 30.9312 14.9848 30.7407 14.8463C30.5501 14.7078 30.4622 14.4857 30.5065 14.2543L31.363 9.77948L28.0397 6.66257C27.8679 6.5014 27.8084 6.27011 27.8812 6.04604C27.9541 5.82197 28.1381 5.66979 28.372 5.64039L32.8926 5.07215L34.8299 0.948437C34.9301 0.7352 35.1318 0.607208 35.3674 0.607208C35.6029 0.607208 35.8046 0.7352 35.9048 0.948437L37.8422 5.07215L42.3628 5.64039C42.5966 5.66979 42.7807 5.82197 42.8535 6.04604C42.9263 6.27011 42.8668 6.5014 42.695 6.66257H42.6949Z" fill="#134CB2"/>
</svg>
