<svg width="42" height="42" viewBox="0 0 42 42" fill="none" xmlns="http://www.w3.org/2000/svg">
<path fill-rule="evenodd" clip-rule="evenodd" d="M18.3289 31.6151C18.6936 31.9603 19.0762 32.2871 19.4745 32.594C17.7093 33.4914 15.7116 33.9979 13.597 33.9979C10.8051 33.9979 8.21729 33.1155 6.09816 31.6151H18.3289ZM22.501 9.40583C24.2663 8.50845 26.264 8.00195 28.3785 8.00195C35.5522 8.00195 41.3765 13.8262 41.3765 20.9999C41.3765 28.1736 35.5522 33.9979 28.3785 33.9979C26.264 33.9979 24.2663 33.4914 22.501 32.594C25.9762 29.9201 28.2176 25.7197 28.2176 20.9999C28.2176 16.2801 25.9762 12.0797 22.501 9.40583ZM20.9878 10.3095C24.3748 12.6565 26.5946 16.5708 26.5946 20.9999C26.5946 25.429 24.3748 29.3434 20.9878 31.6904C17.6012 29.3434 15.381 25.429 15.381 20.9999C15.381 16.5708 17.6012 12.6565 20.9878 10.3095ZM14.9177 26.7119C15.4201 27.8929 16.0734 28.9945 16.8531 29.9921H4.21523C3.29123 29.0286 2.51402 27.9228 1.9202 26.7119H14.9177ZM13.7804 21.8091C13.842 22.9415 14.0333 24.0397 14.3389 25.0893H1.25652C0.91137 24.0476 0.694301 22.9481 0.624023 21.8091H13.7804ZM14.3401 16.9064C14.0341 17.956 13.8428 19.0542 13.7804 20.1865H0.624439C0.694717 19.0475 0.912202 17.9481 1.25818 16.9064H14.3401ZM16.8535 12.0073C16.0746 13.0041 15.4217 14.104 14.9198 15.2838H1.92228C2.5161 14.0741 3.29248 12.97 4.21565 12.0073H16.8535ZM6.09858 10.3843C8.21729 8.88437 10.8051 8.00195 13.597 8.00195C15.7116 8.00195 17.7093 8.50845 19.4745 9.40583C19.0762 9.71273 18.6936 10.0396 18.3293 10.3843H6.09858Z" fill="#134CB2"/>
</svg>
