<svg width="44" height="43" viewBox="0 0 44 43" fill="none" xmlns="http://www.w3.org/2000/svg">
<path d="M36.9122 27.034C42.184 18.3437 38.6322 9.77813 33.1067 5.49103C30.2291 3.27436 26.6786 2.11093 23.0472 2.19465C19.4158 2.27838 15.9228 3.6042 13.1504 5.95113C8.23977 10.1221 7.41417 16.3786 7.34537 19.7412C7.34207 19.9254 7.30566 20.1075 7.23787 20.2787L4.62777 26.7846C4.54214 26.9889 4.49805 27.2081 4.49805 27.4296C4.49805 27.6511 4.54214 27.8704 4.62777 28.0746C4.7128 28.2786 4.83813 28.4634 4.99624 28.6178C5.15436 28.7722 5.34201 28.8931 5.54797 28.9733L7.48727 29.7516C7.64301 29.8138 7.781 29.9134 7.88901 30.0417C7.99702 30.1699 8.07172 30.3229 8.10647 30.4869L9.35347 36.3779C9.48486 36.9906 9.82172 37.54 10.3082 37.9349C10.7946 38.3299 11.4015 38.5467 12.0281 38.5494H17.7428L19.1575 40.5317C19.2168 40.6156 19.2954 40.6841 19.3867 40.7312C19.478 40.7784 19.5793 40.8029 19.6821 40.8026H34.9686C35.0562 40.8028 35.143 40.785 35.2236 40.7505C35.3042 40.7159 35.3769 40.6653 35.4373 40.6017C35.4976 40.5381 35.5444 40.4629 35.5747 40.3806C35.605 40.2984 35.6182 40.2108 35.6136 40.1232C35.4287 36.4897 35.3814 33.7549 35.4674 31.7597C35.5413 30.0876 36.0384 28.4616 36.9122 27.034ZM23.4876 25.8343C21.795 25.8343 20.1404 25.3324 18.7331 24.3919C17.3258 23.4515 16.2291 22.1148 15.5815 20.551C14.934 18.9871 14.7648 17.2664 15.0953 15.6064C15.4258 13.9463 16.2412 12.4216 17.4384 11.2251C18.6355 10.0285 20.1606 9.21391 21.8208 8.88422C23.481 8.55454 25.2017 8.72461 26.7652 9.37293C28.3287 10.0212 29.6648 11.1187 30.6045 12.5264C31.5443 13.9342 32.0454 15.589 32.0446 17.2816C32.0423 19.55 31.1399 21.7247 29.5355 23.3283C27.9311 24.9319 25.7559 25.8332 23.4876 25.8343ZM28.4025 16.3399C28.4043 16.3228 28.4043 16.3055 28.4025 16.2883C28.3913 16.2617 28.3784 16.2358 28.3638 16.2109C28.3615 16.1996 28.3615 16.1879 28.3638 16.1765C28.3389 16.1431 28.3116 16.1114 28.2821 16.0819L24.7088 12.5129C24.6497 12.4496 24.5785 12.3987 24.4994 12.3635C24.4203 12.3282 24.3349 12.3093 24.2483 12.3077C24.1617 12.3062 24.0756 12.3221 23.9953 12.3546C23.915 12.387 23.842 12.4353 23.7808 12.4966C23.7195 12.5578 23.6713 12.6308 23.6388 12.7111C23.6064 12.7914 23.5905 12.8774 23.592 12.964C23.5935 13.0506 23.6125 13.136 23.6477 13.2152C23.683 13.2943 23.7338 13.3655 23.7972 13.4245L26.2353 15.9099H19.1876C19.0165 15.9099 18.8524 15.9779 18.7315 16.0988C18.6105 16.2198 18.5426 16.3839 18.5426 16.5549C18.5426 16.726 18.6105 16.8901 18.7315 17.011C18.8524 17.132 19.0165 17.1999 19.1876 17.1999H26.2353L23.7628 19.6724C23.7024 19.732 23.6545 19.803 23.6219 19.8812C23.5892 19.9595 23.5723 20.0434 23.5723 20.1282C23.5723 20.213 23.5892 20.297 23.6219 20.3752C23.6545 20.4535 23.7024 20.5244 23.7628 20.584C23.8837 20.7048 24.0476 20.7727 24.2186 20.7727C24.3895 20.7727 24.5534 20.7048 24.6744 20.584L28.2477 17.0107C28.2782 16.9807 28.3056 16.9475 28.3294 16.9118C28.3454 16.8841 28.3598 16.8553 28.3724 16.8258V16.7914C28.3829 16.7634 28.3915 16.7347 28.3982 16.7054C28.4024 16.6668 28.4024 16.6279 28.3982 16.5893C28.4024 16.5464 28.4024 16.5032 28.3982 16.4603C28.4072 16.4208 28.4086 16.38 28.4025 16.3399Z" fill="#134CB2"/>
</svg>
