<svg width="44" height="43" viewBox="0 0 44 43" fill="none" xmlns="http://www.w3.org/2000/svg">
<g clip-path="url(#clip0_120_112)">
<path d="M16.377 17.021H27.6228L21.9999 7.18091L16.377 17.021Z" fill="#134CB2"/>
<path d="M30.7832 17.0208H43.2577C43.2129 16.9425 43.1624 16.8677 43.1065 16.7969L36.2664 8.24683L30.7832 17.0208Z" fill="#134CB2"/>
<path d="M29.2004 16.1714L34.8134 7.19071C34.7233 7.17573 34.6322 7.16772 34.5409 7.16675H24.0547L29.2004 16.1714Z" fill="#134CB2"/>
<path d="M15.9805 18.8125L21.9998 42.8896L28.0191 18.8125H15.9805Z" fill="#134CB2"/>
<path d="M29.8669 18.8125L24.2344 41.3427L43.0769 19.0743C43.1458 18.9927 43.2074 18.9051 43.2608 18.8125H29.8669Z" fill="#134CB2"/>
<path d="M14.1341 18.8125H0.740234C0.793631 18.9049 0.855165 18.9924 0.924104 19.0739L19.7666 41.3427L14.1341 18.8125Z" fill="#134CB2"/>
<path d="M14.7986 16.1714L19.9443 7.16675H9.4581C9.36681 7.1672 9.27569 7.17468 9.18555 7.18914L14.7986 16.1714Z" fill="#134CB2"/>
<path d="M13.2178 17.0208L7.73461 8.24683L0.893359 16.7969C0.837494 16.8677 0.786964 16.9425 0.742188 17.0208H13.2178Z" fill="#134CB2"/>
</g>
<defs>
<clipPath id="clip0_120_112">
<rect width="43" height="43" fill="white" transform="translate(0.5)"/>
</clipPath>
</defs>
</svg>
