<svg width="44" height="43" viewBox="0 0 44 43" fill="none" xmlns="http://www.w3.org/2000/svg">
<path d="M38.9579 2.30216C28.8439 17.1192 37.8023 3.99529 27.6973 18.8124C28.7754 18.862 29.8218 19.1923 30.7331 19.7705C31.6444 20.3487 32.3889 21.1548 32.8931 22.109L41.9231 4.04904C42.104 3.65959 42.1336 3.21674 42.006 2.80671C41.8784 2.39668 41.6027 2.04882 41.2327 1.83085C40.8627 1.61287 40.4249 1.54039 40.0044 1.62751C39.5839 1.71464 39.2108 1.95513 38.9579 2.30216Z" fill="#134CB2"/>
<path d="M23.6127 22.6465C22.2689 24.7249 23.7918 30.4582 23.7918 30.4582C23.7918 30.4582 29.785 29.5624 31.1377 27.5199C31.7839 26.522 32.0073 25.3083 31.7586 24.1457C31.51 22.9831 30.8097 21.967 29.8118 21.3207C28.814 20.6745 27.6002 20.4511 26.4377 20.6997C25.2751 20.9484 24.2589 21.6487 23.6127 22.6465Z" fill="#134CB2"/>
<path d="M16.6257 36.7291C17.6152 36.7291 18.4173 35.9269 18.4173 34.9374C18.4173 33.9479 17.6152 33.1458 16.6257 33.1458C15.6361 33.1458 14.834 33.9479 14.834 34.9374C14.834 35.9269 15.6361 36.7291 16.6257 36.7291Z" fill="#134CB2"/>
<path d="M28.4503 34.0415C26.9094 34.0415 25.1626 34.2297 24.1503 32.2499L22.4661 32.4918C21.0149 26.9555 19.8324 21.1236 25.2701 19.2245L33.4132 7.24717C24.8938 -6.45012 -0.0103439 3.39509 1.45882 23.0766C1.71718 26.3025 2.72987 29.4227 4.41524 32.1855C6.10061 34.9483 8.41153 37.2765 11.1617 38.9824C13.9119 40.6883 17.0244 41.7241 20.2484 42.0065C23.4723 42.2889 26.7175 41.8098 29.7224 40.608C30.4493 40.307 31.05 39.7641 31.4226 39.0712C31.7953 38.3782 31.9171 37.5778 31.7675 36.8054C31.6178 36.0329 31.2059 35.3359 30.6014 34.8323C29.997 34.3286 29.237 34.0493 28.4503 34.0415ZM10.3544 10.7499C11.2403 10.7499 12.1063 11.0126 12.8429 11.5048C13.5795 11.9969 14.1536 12.6965 14.4927 13.5149C14.8317 14.3334 14.9204 15.234 14.7475 16.1029C14.5747 16.9718 14.1481 17.7699 13.5217 18.3963C12.8953 19.0227 12.0972 19.4493 11.2283 19.6222C10.3594 19.795 9.45881 19.7063 8.64035 19.3673C7.82188 19.0282 7.12233 18.4541 6.63016 17.7175C6.13798 16.9809 5.87528 16.1149 5.87528 15.2291C5.87528 14.0411 6.34719 12.9018 7.1872 12.0618C8.0272 11.2218 9.1665 10.7499 10.3544 10.7499ZM8.56278 30.4582C7.85406 30.4582 7.16126 30.2481 6.57199 29.8543C5.98271 29.4606 5.52343 28.9009 5.25221 28.2462C4.981 27.5914 4.91004 26.8709 5.0483 26.1758C5.18656 25.4807 5.52784 24.8422 6.02898 24.3411C6.53012 23.8399 7.16861 23.4987 7.86371 23.3604C8.55881 23.2221 9.27929 23.2931 9.93406 23.5643C10.5888 23.8355 11.1485 24.2948 11.5422 24.8841C11.936 25.4734 12.1461 26.1662 12.1461 26.8749C12.1461 27.8252 11.7686 28.7367 11.0966 29.4087C10.4246 30.0807 9.51314 30.4582 8.56278 30.4582ZM16.6253 38.5207C15.9166 38.5207 15.2238 38.3106 14.6345 37.9168C14.0452 37.5231 13.5859 36.9634 13.3147 36.3087C13.0435 35.6539 12.9725 34.9334 13.1108 34.2383C13.2491 33.5432 13.5903 32.9047 14.0915 32.4036C14.5926 31.9024 15.2311 31.5612 15.9262 31.4229C16.6213 31.2846 17.3418 31.3556 17.9966 31.6268C18.6513 31.898 19.211 32.3573 19.6047 32.9466C19.9985 33.5359 20.2086 34.2287 20.2086 34.9374C20.2086 35.8877 19.8311 36.7992 19.1591 37.4712C18.4871 38.1432 17.5756 38.5207 16.6253 38.5207ZM17.5211 8.06238C17.5211 7.17649 17.7838 6.31049 18.276 5.57389C18.7682 4.8373 19.4677 4.26319 20.2862 3.92417C21.1046 3.58515 22.0052 3.49645 22.8741 3.66928C23.743 3.84211 24.5411 4.26871 25.1675 4.89513C25.794 5.52156 26.2206 6.31967 26.3934 7.18854C26.5662 8.05741 26.4775 8.95802 26.1385 9.77649C25.7995 10.5949 25.2254 11.2945 24.4888 11.7867C23.7522 12.2789 22.8862 12.5415 22.0003 12.5415C20.8123 12.5415 19.673 12.0696 18.833 11.2296C17.993 10.3896 17.5211 9.25033 17.5211 8.06238Z" fill="#134CB2"/>
<path d="M10.3535 17.9165C11.8378 17.9165 13.041 16.7133 13.041 15.229C13.041 13.7447 11.8378 12.5415 10.3535 12.5415C8.86925 12.5415 7.66602 13.7447 7.66602 15.229C7.66602 16.7133 8.86925 17.9165 10.3535 17.9165Z" fill="#134CB2"/>
<path d="M22 10.75C23.4843 10.75 24.6875 9.54677 24.6875 8.0625C24.6875 6.57823 23.4843 5.375 22 5.375C20.5157 5.375 19.3125 6.57823 19.3125 8.0625C19.3125 9.54677 20.5157 10.75 22 10.75Z" fill="#134CB2"/>
<path d="M8.56315 28.6666C9.55266 28.6666 10.3548 27.8644 10.3548 26.8749C10.3548 25.8854 9.55266 25.0833 8.56315 25.0833C7.57364 25.0833 6.77148 25.8854 6.77148 26.8749C6.77148 27.8644 7.57364 28.6666 8.56315 28.6666Z" fill="#134CB2"/>
</svg>
