<svg width="44" height="43" viewBox="0 0 44 43" fill="none" xmlns="http://www.w3.org/2000/svg">
<path fill-rule="evenodd" clip-rule="evenodd" d="M12.3984 24.0391C10.0029 24.9013 7.66274 25.4342 5.34689 25.6977C5.32118 25.5989 5.2963 25.4997 5.27244 25.4004L2.16211 24.2033V19.1236L5.27244 17.9266C5.67142 16.264 6.3262 14.6833 7.22144 13.2305L5.86584 10.1815L9.45693 6.59043L12.5058 7.94603C13.9586 7.05087 15.5393 6.396 17.1968 6.00217L18.399 2.88678H23.4787L24.6758 6.00217C26.3333 6.396 27.914 7.05087 29.3668 7.94603L30.035 7.64899C30.0597 7.66745 30.085 7.68541 30.1108 7.7027L31.734 8.79009C30.3609 10.7979 28.5655 12.8829 26.5813 14.8283C25.0479 13.5616 23.0809 12.8007 20.9363 12.8007C16.0407 12.8007 12.0761 16.7653 12.0761 21.6609C12.0761 22.4847 12.1884 23.2823 12.3984 24.0391ZM29.7155 22.9009C32.2377 21.1566 34.4639 19.1721 36.3603 17.0306C36.4488 17.3264 36.5288 17.6251 36.6002 17.9266L39.7105 19.1236V24.2033L36.6002 25.4004C36.2063 27.0578 35.5464 28.6386 34.6563 30.0914L36.0068 33.1402L32.4156 36.7314L29.3668 35.3809C27.919 36.2761 26.3333 36.9309 24.6758 37.3248L23.4787 40.4351H18.399L17.2019 37.3248C15.5393 36.9309 13.9586 36.271 12.5058 35.3809L9.45693 36.7314L5.86584 33.1402L7.22144 30.0914C7.1109 29.9126 7.00399 29.7318 6.90088 29.549C9.7721 29.7448 12.7839 29.5364 15.8269 28.9051C17.2705 29.9262 19.033 30.5262 20.9363 30.5262C25.4111 30.5262 29.1122 27.2097 29.7155 22.9009ZM38.6049 11.7752C35.7331 16.4133 31.389 20.6273 25.8726 23.706C18.3648 27.8926 10.2101 29.13 3.32446 27.7055C3.2017 27.677 3.1189 27.562 3.13096 27.4366C3.14293 27.3111 3.24605 27.2139 3.37201 27.2094C8.28185 26.9749 13.2609 25.6477 18.5799 22.6809C24.0328 19.6389 30.3839 13.6284 33.5895 8.40933L30.8617 6.582C30.7297 6.49355 30.6586 6.33833 30.6779 6.18067C30.6971 6.02291 30.8034 5.88945 30.9528 5.83532L39.876 2.605C40.0708 2.53443 40.2873 2.55737 40.4631 2.66723C40.6388 2.77709 40.7544 2.96165 40.7763 3.1678L41.8351 13.1082C41.8524 13.271 41.7739 13.4292 41.6337 13.5139C41.4935 13.5984 41.317 13.5942 41.1811 13.503L38.6049 11.7752Z" fill="#134CB2"/>
</svg>
