<svg width="42" height="42" viewBox="0 0 42 42" fill="none" xmlns="http://www.w3.org/2000/svg">
<path fill-rule="evenodd" clip-rule="evenodd" d="M28.7524 15.5979C28.037 15.0781 27.6897 14.1999 27.8559 13.3313L28.5385 9.7647L25.9147 7.30387H3.83314C1.78829 7.30387 0.115234 8.97692 0.115234 11.0218V31.0831C0.115234 33.128 1.78837 34.801 3.83314 34.801H7.62848V41.7855L13.3849 34.801H29.0672C31.1115 34.801 32.7851 33.1277 32.7851 31.0831V14.8694L31.1852 15.7502C30.4128 16.1754 29.4656 16.1162 28.7524 15.5979ZM10.3938 29.0243C10.3938 29.4644 10.0339 29.8244 9.59379 29.8244H7.23929C6.79922 29.8244 6.43926 29.4644 6.43926 29.0243V19.2923C6.43926 18.8522 6.79922 18.4922 7.23929 18.4922H9.59379C10.0339 18.4922 10.3938 18.8522 10.3938 19.2923V29.0243ZM24.5865 28.8118C23.169 30.2293 17.5947 30.1309 15.6207 29.7715C14.3007 29.5311 13.6371 29.117 12.1072 29.0243L12.0907 19.1311C16.6519 18.4462 17.5633 15.9464 17.1714 11.2938C17.1445 10.9747 17.377 10.6913 17.6954 10.6555C21.5693 10.2201 20.7672 16.4598 20.528 18.3177H22.2168C26.0603 18.2207 26.2037 19.0468 26.4332 20.5863C26.6429 21.9936 25.6421 27.7117 24.5866 28.8118H24.5865ZM41.694 6.05536L38.3708 9.17218L39.2273 13.6471C39.2716 13.8785 39.1838 14.1006 38.9932 14.2391C38.8026 14.3776 38.5642 14.3925 38.3578 14.2789L34.3665 12.0816L30.3752 14.2789C30.1688 14.3926 29.9304 14.3776 29.7398 14.2391C29.5492 14.1006 29.4613 13.8785 29.5056 13.6471L30.3621 9.17227L27.0389 6.05536C26.867 5.89419 26.8076 5.6629 26.8804 5.43883C26.9532 5.21476 27.1373 5.06258 27.3711 5.03318L31.8917 4.46495L33.8291 0.341229C33.9293 0.127992 34.1309 0 34.3665 0C34.6021 0 34.8037 0.127992 34.9039 0.341229L36.8414 4.46495L41.362 5.03318C41.5957 5.06258 41.7798 5.21476 41.8526 5.43883C41.9254 5.6629 41.866 5.89419 41.6941 6.05536H41.694Z" fill="#134CB2"/>
</svg>
