<svg width="44" height="43" viewBox="0 0 44 43" fill="none" xmlns="http://www.w3.org/2000/svg">
<path fill-rule="evenodd" clip-rule="evenodd" d="M10.4795 40.0384C11.319 34.4277 16.157 30.1241 21.9996 30.1241C27.8454 30.1241 32.6835 34.4278 33.5211 40.0385C33.5382 40.1594 33.5021 40.2818 33.422 40.374C33.3419 40.4662 33.2258 40.5192 33.1037 40.5192C30.1036 40.5192 13.8967 40.5192 10.8959 40.5181C10.774 40.5181 10.6582 40.4652 10.5783 40.3732C10.4984 40.2813 10.4624 40.1591 10.4795 40.0384ZM21.9996 29.2809C18.7563 29.2809 16.1124 26.634 16.1124 23.3905C16.1124 20.1471 18.7563 17.5002 21.9996 17.5002C25.2461 17.5002 27.89 20.1471 27.89 23.3905C27.89 26.634 25.2461 29.2809 21.9996 29.2809ZM10.264 24.8061C10.264 25.1785 9.96175 25.4807 9.58951 25.4807C9.21726 25.4807 8.915 25.1785 8.915 24.8061C8.915 17.5846 14.778 11.7215 21.9996 11.7215C29.2213 11.7215 35.0843 17.5846 35.0843 24.8061C35.0843 25.1785 34.782 25.4807 34.4098 25.4807C34.0375 25.4807 33.7353 25.1785 33.7353 24.8061C33.7353 18.3291 28.4767 13.0705 21.9996 13.0705C15.5226 13.0705 10.264 18.3291 10.264 24.8061ZM21.3251 6.67372V3.15522C21.3251 2.78298 21.6274 2.48071 21.9996 2.48071C22.3719 2.48071 22.6742 2.78298 22.6742 3.15522V6.67372L22.8637 6.50745C23.1434 6.26193 23.57 6.28975 23.8155 6.56951C24.0611 6.84934 24.0333 7.27589 23.7535 7.52141L22.4446 8.67002C22.19 8.89345 21.8093 8.89345 21.5547 8.67002L20.2458 7.52141C19.966 7.27589 19.9382 6.84934 20.1838 6.56951C20.4293 6.28975 20.8558 6.26193 21.1356 6.50745L21.3251 6.67372ZM10.6561 11.093L10.6724 10.8414C10.6967 10.4699 11.018 10.188 11.3894 10.2123C11.7609 10.2365 12.0429 10.5578 12.0186 10.9293L11.9053 12.667C11.8833 13.0049 11.6141 13.2741 11.2761 13.2961L9.53833 13.4095C9.16685 13.4337 8.84561 13.1518 8.82133 12.7803C8.79713 12.4088 9.07907 12.0876 9.45056 12.0634L9.70215 12.0469L7.21422 9.55902C6.95091 9.29579 6.95091 8.86832 7.21422 8.60509C7.47745 8.34187 7.90484 8.34187 8.16806 8.60509L10.6561 11.093ZM5.28285 22.716L5.11658 22.5266C4.87098 22.2467 4.8988 21.8202 5.17864 21.5747C5.45847 21.3291 5.88493 21.357 6.13054 21.6367L7.27915 22.9457C7.50249 23.2002 7.50249 23.5809 7.27915 23.8354L6.13054 25.1444C5.88493 25.4242 5.45847 25.452 5.17864 25.2065C4.8988 24.9609 4.87098 24.5344 5.11658 24.2546L5.28285 24.065H1.76435C1.39211 24.065 1.08984 23.7628 1.08984 23.3905C1.08984 23.0183 1.39211 22.716 1.76435 22.716H5.28285ZM33.3432 11.093L35.8312 8.60509C36.0945 8.34187 36.5218 8.34187 36.7851 8.60509C37.0484 8.86832 37.0484 9.29579 36.7851 9.55902L34.2971 12.0469L34.5487 12.0634C34.9202 12.0876 35.2022 12.4088 35.178 12.7803C35.1537 13.1518 34.8324 13.4337 34.461 13.4095L32.7232 13.2961C32.3852 13.2741 32.116 13.0049 32.094 12.667L31.9807 10.9293C31.9564 10.5578 32.2384 10.2365 32.6099 10.2123C32.9813 10.188 33.3026 10.4699 33.3269 10.8414L33.3432 11.093ZM38.7164 22.716H42.2349C42.6072 22.716 42.9095 23.0183 42.9095 23.3905C42.9095 23.7628 42.6072 24.065 42.2349 24.065H38.7164L38.8827 24.2546C39.1283 24.5344 39.1005 24.9609 38.8207 25.2065C38.5408 25.452 38.1144 25.4242 37.8688 25.1444L36.7201 23.8354C36.4968 23.5809 36.4968 23.2002 36.7201 22.9457L37.8688 21.6367C38.1144 21.357 38.5408 21.3291 38.8207 21.5747C39.1005 21.8202 39.1283 22.2467 38.8827 22.5266L38.7164 22.716Z" fill="#134CB2"/>
</svg>
