<svg width="42" height="42" viewBox="0 0 42 42" fill="none" xmlns="http://www.w3.org/2000/svg">
<path d="M32.8121 32.1126C32.8948 32.8617 32.8071 33.6198 32.5556 34.3303C32.3041 35.0407 31.8951 35.6851 31.3594 36.2153C30.8237 36.7454 30.1751 37.1476 29.4621 37.3917C28.749 37.6359 27.99 37.7156 27.2418 37.6251H14.7573C14.0091 37.7156 13.2501 37.6359 12.5371 37.3917C11.824 37.1476 11.1754 36.7454 10.6397 36.2153C10.104 35.6851 9.69509 35.0407 9.44354 34.3303C9.19199 33.6198 9.10432 32.8617 9.18707 32.1126C9.10984 30.9519 9.2817 29.7881 9.69113 28.6993C10.1006 27.6105 10.7381 26.6218 11.561 25.7996C12.3838 24.9774 13.373 24.3407 14.4622 23.9321C15.5513 23.5236 16.7152 23.3527 17.8758 23.4308H24.1233C25.2839 23.3527 26.4479 23.5236 27.537 23.9321C28.6261 24.3407 29.6153 24.9774 30.4382 25.7996C31.261 26.6218 31.8986 27.6105 32.308 28.6993C32.7174 29.7881 32.8893 30.9519 32.8121 32.1126ZM21.0136 20.1461C22.226 20.1412 23.4098 19.7773 24.4156 19.1002C25.4213 18.4231 26.2039 17.4631 26.6645 16.3416C27.1252 15.2201 27.2432 13.9872 27.0037 12.7987C26.7642 11.6101 26.1779 10.5192 25.3189 9.66354C24.4598 8.80792 23.3666 8.226 22.1771 7.99124C20.9876 7.75648 19.7552 7.8794 18.6355 8.3445C17.5158 8.80959 16.559 9.596 15.8859 10.6044C15.2128 11.6129 14.8536 12.7981 14.8536 14.0106C14.8591 15.6403 15.5107 17.2014 16.6654 18.3515C17.8201 19.5017 19.3838 20.147 21.0136 20.1461ZM32.8821 15.6276H30.0646C29.9472 15.6283 29.8333 15.6683 29.7414 15.7412C29.6494 15.8142 29.5845 15.9159 29.5571 16.0301C29.175 17.6711 28.3166 19.1628 27.0896 20.3176C27.0253 20.3858 26.9804 20.4701 26.9597 20.5615C26.9389 20.653 26.9431 20.7483 26.9717 20.8376C27.0002 20.9269 27.0522 21.0069 27.1222 21.0694C27.1922 21.1318 27.2776 21.1743 27.3696 21.1926C28.7422 21.4896 30.0351 22.0776 31.1612 22.9169C32.2872 23.7561 33.2201 24.8271 33.8971 26.0576C33.9385 26.1526 34.0072 26.2332 34.0944 26.2893C34.1816 26.3453 34.2834 26.3743 34.3871 26.3726H35.1221C35.6954 26.4408 36.2768 26.3783 36.8226 26.1899C37.3683 26.0015 37.8644 25.6919 38.2735 25.2845C38.6826 24.877 38.9942 24.3823 39.1849 23.8373C39.3756 23.2923 39.4404 22.7112 39.3746 22.1376C39.4329 21.2691 39.3052 20.3982 38.9998 19.583C38.6944 18.7679 38.2184 18.0274 37.6038 17.4111C36.9891 16.7948 36.2499 16.3168 35.4356 16.0092C34.6213 15.7017 33.7507 15.5715 32.8821 15.6276ZM30.6421 4.37508C29.8142 4.37436 29.0009 4.59373 28.2857 5.0107C27.5704 5.42767 26.9789 6.02727 26.5716 6.74808C26.5151 6.85576 26.5019 6.981 26.5348 7.09808C26.5601 7.20731 26.6257 7.30295 26.7186 7.36583C27.592 8.09793 28.3109 8.99661 28.8334 10.0094C29.3559 11.0223 29.6715 12.129 29.7618 13.2651C29.7681 13.3784 29.8168 13.4853 29.8983 13.5643C29.9958 13.6586 30.125 13.7129 30.2606 13.7166C30.3848 13.7271 30.5126 13.7341 30.6421 13.7341C31.8836 13.7341 33.0743 13.2409 33.9522 12.363C34.8301 11.4851 35.3233 10.2944 35.3233 9.05283C35.3233 7.81128 34.8301 6.62059 33.9522 5.74268C33.0743 4.86478 31.8836 4.37158 30.6421 4.37158V4.37508ZM2.62457 22.1376C2.55872 22.7112 2.62357 23.2923 2.81426 23.8373C3.00495 24.3823 3.31654 24.877 3.72566 25.2845C4.13478 25.6919 4.63082 26.0015 5.17659 26.1899C5.72237 26.3783 6.30372 26.4408 6.87707 26.3726H7.61207C7.71572 26.3743 7.81757 26.3453 7.90477 26.2893C7.99197 26.2332 8.06062 26.1526 8.10207 26.0576C8.77899 24.8271 9.71195 23.7561 10.838 22.9169C11.964 22.0776 13.257 21.4896 14.6296 21.1926C14.7216 21.1743 14.807 21.1318 14.877 21.0694C14.9469 21.0069 14.9989 20.9269 15.0275 20.8376C15.0561 20.7483 15.0602 20.653 15.0395 20.5615C15.0187 20.4701 14.9739 20.3858 14.9096 20.3176C13.6826 19.1628 12.8242 17.6711 12.4421 16.0301C12.4147 15.9159 12.3498 15.8142 12.2578 15.7412C12.1658 15.6683 12.052 15.6283 11.9346 15.6276H9.11707C8.24843 15.5715 7.37784 15.7017 6.56355 16.0092C5.74926 16.3168 5.01005 16.7948 4.39538 17.4111C3.78071 18.0274 3.30476 18.7679 2.99937 19.583C2.69398 20.3982 2.5662 21.2691 2.62457 22.1376ZM6.68457 9.04758C6.68364 10.2887 7.17506 11.4795 8.05103 12.3588C8.92699 13.238 10.116 13.7339 11.3571 13.7376C11.4866 13.7376 11.6143 13.7376 11.7386 13.7201C11.8741 13.7164 12.0033 13.6621 12.1008 13.5678C12.1823 13.4888 12.2311 13.3819 12.2373 13.2686C12.3277 12.1325 12.6433 11.0258 13.1658 10.0129C13.6882 9.00011 14.4072 8.10143 15.2806 7.36933C15.3734 7.30644 15.439 7.21081 15.4643 7.10158C15.4972 6.9845 15.4841 6.85926 15.4276 6.75158C14.921 5.84935 14.1294 5.1407 13.1768 4.73671C12.2242 4.33273 11.1645 4.25624 10.1638 4.51923C9.16302 4.78222 8.27784 5.36983 7.64694 6.18996C7.01605 7.01008 6.67511 8.01637 6.67757 9.05108L6.68457 9.04758Z" fill="#134CB2"/>
</svg>
