<svg width="42" height="42" viewBox="0 0 42 42" fill="none" xmlns="http://www.w3.org/2000/svg">
<path d="M17.4671 32.3619C16.9362 31.8719 16.1603 31.7493 15.4661 32.0352C15.4253 32.0352 15.4253 32.0352 15.3844 32.0352C15.3844 32.0352 15.3844 32.0352 15.3844 31.9944C15.4253 31.0143 14.6494 30.1567 13.6693 30.075C13.4243 30.075 13.1793 30.1159 12.9342 30.1975C12.6484 30.2384 12.7301 29.9934 12.7301 29.9934C13.0976 29.0541 12.6892 28.0332 11.75 27.6248C11.2599 27.4207 10.6882 27.4615 10.1982 27.7065C9.99401 27.7473 10.0348 27.5432 10.0348 27.5432C10.5249 26.6856 10.239 25.6238 9.4223 25.1338C8.60556 24.6846 7.62548 24.8888 7.05377 25.6238L5.62449 27.3798C5.01194 28.1557 5.13445 29.2991 5.86951 29.9117C5.86951 29.9117 5.86951 29.9117 5.91034 29.9525L6.11453 30.1159C6.68624 30.5651 7.50297 30.6059 8.11552 30.2384C8.15636 30.1975 8.1972 30.2384 8.23803 30.2792V30.3609C8.11552 31.0143 8.36054 31.7085 8.89142 32.1169L9.05477 32.2394C9.62648 32.6886 10.3615 32.7294 11.0149 32.4436C11.0558 32.4027 11.0966 32.4436 11.1374 32.4844V32.5252C11.0558 33.1378 11.3008 33.7503 11.7908 34.1587L11.9133 34.2404C12.485 34.6896 13.2201 34.7304 13.8735 34.4446C13.9143 34.4037 13.996 34.4446 13.996 34.4854V34.5262C14.0777 34.9754 14.3227 35.3838 14.6902 35.6697L14.7719 35.7513C15.5886 36.3639 16.7321 36.2414 17.3446 35.4246C17.3854 35.343 17.4263 35.3021 17.508 35.2205L17.753 34.7712C18.243 33.9545 18.1205 32.9744 17.4671 32.3619ZM33.9243 27.9107C33.8426 27.7882 33.7609 27.6657 33.6793 27.584L32.3725 25.9914L21.8366 13.1687C21.7141 13.0462 21.5508 13.0053 21.3874 13.087L16.3237 15.9047C14.6902 16.8031 12.7709 16.9665 11.0149 16.3131C10.0757 15.9864 9.29979 15.2105 8.93226 14.2713C8.6464 13.2912 8.76891 12.2703 9.25895 11.3719C9.38146 11.1268 9.29979 10.841 9.0956 10.7185C9.01393 10.6776 8.93226 10.6776 8.85058 10.6368H2.03086C1.49998 10.6368 1.05078 11.086 1.05078 11.6169V25.2155C1.05078 25.7464 1.49998 26.1547 2.03086 26.1547H4.11353L5.58365 24.3579C6.89042 22.7653 9.25895 22.5611 10.8516 23.8679C11.4233 24.3579 11.8725 25.0113 12.0767 25.7464C13.3426 26.073 14.3227 27.0531 14.6494 28.3191C15.5478 28.6049 16.3645 29.1766 16.8137 30.0342C17.5896 30.1567 18.3247 30.5242 18.8964 31.096C20.0807 32.3211 20.3257 34.2404 19.4273 35.7105L19.2231 36.078C20.1623 36.7722 21.5099 36.5272 22.2042 35.588C22.5309 35.0979 22.6534 34.5262 22.5717 33.9545C22.5717 33.9545 22.5717 33.9137 22.5717 33.8729H22.6125L22.7759 34.0362C23.5109 34.7713 24.6544 34.8938 25.5528 34.3221C26.247 33.832 26.5737 32.9744 26.4103 32.1577V32.1169H26.4512L26.6145 32.2802C27.3496 33.0153 28.493 33.1378 29.3914 32.5661C30.0856 32.076 30.4123 31.2185 30.2898 30.4017C30.2898 30.3609 30.2898 30.3609 30.2898 30.3201H30.3307L30.494 30.4834C31.1882 31.1776 32.25 31.3001 33.1076 30.8101C34.2101 30.2792 34.5368 28.9316 33.9243 27.9107ZM40.0089 10.6368H38.1713C37.3954 10.6368 36.6195 10.5143 35.9253 10.2284L24.8177 5.98141C22.5717 5.12384 20.0398 5.49137 18.1613 6.92065L11.1783 12.2294C11.0558 12.3519 10.9333 12.5153 10.8516 12.6786C10.5657 13.332 10.8516 14.1079 11.5458 14.4346C12.8117 14.9655 14.241 14.9246 15.4253 14.2304L21.3466 10.8818C21.7958 10.6368 22.3675 10.7593 22.6942 11.1268L35.6394 26.8489C35.7619 26.9715 35.9661 27.0123 36.0886 26.8898L36.6195 26.4406C36.9054 26.2364 37.2321 26.1139 37.5588 26.1139H39.9681C40.499 26.1139 40.9074 25.7055 40.9482 25.1746V11.6169C40.989 11.086 40.5398 10.6368 40.0089 10.6368Z" fill="#134CB2"/>
</svg>
