<svg width="44" height="43" viewBox="0 0 44 43" fill="none" xmlns="http://www.w3.org/2000/svg">
<g clip-path="url(#clip0_117_281)">
<path d="M1.75977 36.6172H17.0096C18.3877 36.6172 19.4924 37.6305 20.2949 38.7507C20.4114 38.9134 20.5663 39.0388 20.7402 39.131V7.64258C20.7402 5.55531 19.0482 3.86328 16.9609 3.86328H1.75977C1.06404 3.86328 0.5 4.42732 0.5 5.12305V35.3574C0.5 36.0532 1.06404 36.6172 1.75977 36.6172ZM7.99006 11.791C7.498 11.2989 7.498 10.5017 7.99006 10.0096C8.48213 9.51753 9.27939 9.51753 9.77145 10.0096L10.6621 10.9002L11.5528 10.0096C12.0448 9.51753 12.8421 9.51753 13.3342 10.0096C13.8262 10.5017 13.8262 11.2989 13.3342 11.791L12.4435 12.6816L13.3342 13.5723C13.8262 14.0644 13.8262 14.8616 13.3342 15.3537C12.8421 15.8458 12.0448 15.8458 11.5528 15.3537L10.6621 14.463L9.77145 15.3537C9.27939 15.8458 8.48213 15.8458 7.99006 15.3537C7.498 14.8616 7.498 14.0644 7.99006 13.5723L8.88072 12.6816L7.99006 11.791ZM5.62305 18.9805H15.7012C16.3975 18.9805 16.9609 19.5439 16.9609 20.2402C16.9609 20.9365 16.3975 21.5 15.7012 21.5H5.62305C4.92673 21.5 4.36328 20.9365 4.36328 20.2402C4.36328 19.5439 4.92673 18.9805 5.62305 18.9805ZM5.62305 24.0195H15.7012C16.3975 24.0195 16.9609 24.583 16.9609 25.2793C16.9609 25.9756 16.3975 26.5391 15.7012 26.5391H5.62305C4.92673 26.5391 4.36328 25.9756 4.36328 25.2793C4.36328 24.583 4.92673 24.0195 5.62305 24.0195ZM5.62305 29.0586H15.7012C16.3975 29.0586 16.9609 29.622 16.9609 30.3184C16.9609 31.0147 16.3975 31.5781 15.7012 31.5781H5.62305C4.92673 31.5781 4.36328 31.0147 4.36328 30.3184C4.36328 29.622 4.92673 29.0586 5.62305 29.0586Z" fill="#134CB2"/>
<path d="M42.2402 3.86328H27.0391C24.9478 3.86328 23.2598 5.55128 23.2598 7.64258V39.1367C23.4614 39.0107 23.6378 38.8596 23.7637 38.658C24.4439 37.4989 25.7036 36.6172 27.0391 36.6172H42.2402C42.9458 36.6172 43.5 36.063 43.5 35.3574V5.12305C43.5 4.41749 42.9458 3.86328 42.2402 3.86328ZM29.2978 11.791C29.7899 11.2989 30.5871 11.2989 31.0792 11.791L32.5715 13.2833L35.4798 9.40684C35.8981 8.84834 36.6891 8.74009 37.2427 9.15463C37.8001 9.5717 37.9132 10.3615 37.4949 10.9175L33.7157 15.9566C33.2615 16.5637 32.3645 16.6391 31.8174 16.0919L29.2978 13.5724C28.8057 13.0802 28.8057 12.2831 29.2978 11.791ZM38.377 31.5781H28.2988C27.6025 31.5781 27.0391 31.0147 27.0391 30.3184C27.0391 29.622 27.6025 29.0586 28.2988 29.0586H38.377C39.0733 29.0586 39.6367 29.622 39.6367 30.3184C39.6367 31.0147 39.0733 31.5781 38.377 31.5781ZM38.377 26.5391H28.2988C27.6025 26.5391 27.0391 25.9756 27.0391 25.2793C27.0391 24.583 27.6025 24.0195 28.2988 24.0195H38.377C39.0733 24.0195 39.6367 24.583 39.6367 25.2793C39.6367 25.9756 39.0733 26.5391 38.377 26.5391ZM38.377 21.5H28.2988C27.6025 21.5 27.0391 20.9365 27.0391 20.2402C27.0391 19.5439 27.6025 18.9805 28.2988 18.9805H38.377C39.0733 18.9805 39.6367 19.5439 39.6367 20.2402C39.6367 20.9365 39.0733 21.5 38.377 21.5Z" fill="#134CB2"/>
</g>
<defs>
<clipPath id="clip0_117_281">
<rect width="43" height="43" fill="white" transform="translate(0.5)"/>
</clipPath>
</defs>
</svg>
